<?xml version="1.0" encoding="UTF-8"?><svg xmlns="http://www.w3.org/2000/svg" viewBox="0 0 303.28 113.89"><defs><style>.d{fill:#d0cdc2;}</style></defs><g id="a"/><g id="b"><g id="c"><g><g><path class="d" d="M5.35,72.58c-1.69-.88-3-2.11-3.94-3.7-.94-1.59-1.41-3.43-1.41-5.5v-13.19c0-2.07,.47-3.9,1.41-5.5,.94-1.59,2.25-2.83,3.94-3.71,1.69-.88,3.65-1.31,5.88-1.31s4.15,.43,5.85,1.29c1.7,.86,3.02,2.06,3.94,3.61,.92,1.55,1.39,3.29,1.39,5.23v.48c0,.41-.21,.62-.62,.62h-2.15c-.41,0-.62-.17-.62-.53v-.53c0-2.13-.71-3.87-2.13-5.21-1.42-1.34-3.31-2.01-5.66-2.01s-4.25,.69-5.69,2.06c-1.43,1.37-2.15,3.17-2.15,5.4v13.38c0,2.23,.73,4.03,2.2,5.4,1.47,1.37,3.39,2.06,5.78,2.06s4.18-.64,5.57-1.91c1.39-1.27,2.08-2.98,2.08-5.11v-4.3c0-.16-.08-.24-.24-.24h-6.84c-.42,0-.62-.21-.62-.62v-1.72c0-.41,.21-.62,.62-.62h9.85c.41,0,.62,.21,.62,.62v6.02c0,3.41-1.01,6.07-3.04,7.98-2.02,1.91-4.74,2.87-8.15,2.87-2.23,0-4.19-.44-5.88-1.31Z"/><path class="d" d="M50.09,73.03l-6.98-14.72c-.06-.13-.16-.19-.29-.19h-7.98c-.16,0-.24,.08-.24,.24v14.53c0,.41-.21,.62-.62,.62h-2.15c-.41,0-.62-.21-.62-.62V40.62c0-.41,.21-.62,.62-.62h12.24c2.74,0,4.95,.84,6.64,2.53,1.69,1.69,2.53,3.9,2.53,6.64,0,2.23-.6,4.12-1.79,5.66-1.19,1.55-2.83,2.56-4.9,3.04-.16,.03-.21,.13-.14,.29l7.12,14.63c.06,.13,.1,.22,.1,.29,0,.29-.19,.43-.57,.43h-2.2c-.35,0-.61-.16-.76-.48Zm-15.49-29.83v11.95c0,.16,.08,.24,.24,.24h8.84c1.85,0,3.35-.57,4.49-1.7,1.15-1.13,1.72-2.62,1.72-4.47s-.57-3.35-1.72-4.52c-1.15-1.16-2.65-1.74-4.49-1.74h-8.84c-.16,0-.24,.08-.24,.24Z"/><path class="d" d="M66.73,72.55c-1.72-.89-3.06-2.14-4.02-3.75-.96-1.61-1.43-3.48-1.43-5.62v-22.51c0-.41,.21-.62,.62-.62h2.15c.41,0,.62,.21,.62,.62v22.61c0,2.26,.73,4.1,2.2,5.52,1.47,1.42,3.39,2.13,5.78,2.13s4.32-.71,5.78-2.13c1.47-1.42,2.2-3.26,2.2-5.52v-22.61c0-.41,.21-.62,.62-.62h2.15c.41,0,.62,.21,.62,.62v22.51c0,2.14-.47,4.01-1.41,5.62-.94,1.61-2.27,2.86-3.99,3.75-1.72,.89-3.71,1.34-5.98,1.34s-4.21-.45-5.93-1.34Z"/><path class="d" d="M113.31,42.58c1.7,1.72,2.56,3.98,2.56,6.79s-.87,5-2.61,6.69c-1.74,1.69-4.02,2.53-6.86,2.53h-9.27c-.16,0-.24,.08-.24,.24v14.05c0,.41-.21,.62-.62,.62h-2.15c-.41,0-.62-.21-.62-.62V40.62c0-.41,.21-.62,.62-.62h12.43c2.8,0,5.06,.86,6.76,2.58Zm-2.56,11.45c1.18-1.16,1.77-2.7,1.77-4.61s-.59-3.51-1.77-4.68c-1.18-1.18-2.71-1.77-4.59-1.77h-9.03c-.16,0-.24,.08-.24,.24v12.33c0,.16,.08,.24,.24,.24h9.03c1.88,0,3.41-.58,4.59-1.74Z"/><path class="d" d="M127.67,72.51c-1.72-.92-3.05-2.22-3.99-3.9-.94-1.67-1.41-3.61-1.41-5.81v-12.04c0-2.2,.47-4.14,1.41-5.81,.94-1.67,2.27-2.97,3.99-3.9,1.72-.92,3.71-1.39,5.97-1.39s4.26,.46,6,1.39c1.74,.92,3.07,2.22,4.01,3.9s1.41,3.61,1.41,5.81v12.04c0,2.2-.47,4.14-1.41,5.81s-2.28,2.97-4.01,3.9c-1.74,.92-3.74,1.39-6,1.39s-4.25-.46-5.97-1.39Zm11.81-3.73c1.47-1.47,2.2-3.41,2.2-5.83v-12.24c0-2.42-.73-4.37-2.2-5.86-1.47-1.48-3.41-2.22-5.83-2.22s-4.32,.74-5.78,2.22c-1.47,1.48-2.2,3.43-2.2,5.86v12.24c0,2.42,.73,4.37,2.2,5.83,1.47,1.47,3.39,2.2,5.78,2.2s4.37-.73,5.83-2.2Z"/></g><g><path class="d" d="M239.22,79.84c0,6.3-5.11,11.4-11.4,11.4s-11.4-5.1-11.4-11.4V39.23h-32.96v-15.18c0-6.3,5.11-11.4,11.4-11.4h8.52V.04h-8.57c-13.27,0-24.01,10.76-24.01,24.01,.01,0,.02,6.34,.03,15.17h-6.57v12.66h6.57c0,19.02-.01,40.81-.01,40.81,0,3.59-1.67,6.8-4.26,8.89l4.55,12.12c7.39-4.09,12.37-11.96,12.37-21.01V51.88h20.34v28c0,13.26,10.75,24.01,24.01,24.01h0c13.26,0,24.01-10.75,24.01-24.01V33.05h-12.61v46.79Z"/><path class="d" d="M274.02,79.73V14.36h-12.61V79.73c0,14.57,7.92,27.32,19.69,34.16l7.74-10.14c-8.78-4.43-14.81-13.53-14.81-24.02Z"/><path class="d" d="M296.25,76.02V0h-12.61V76.02c0,8.35,4.75,15.6,11.69,19.21l7.95-10.41c-4.02-.91-7.03-4.5-7.03-8.79Z"/></g></g></g></g></svg>