<?xml version="1.0" encoding="UTF-8"?><svg xmlns="http://www.w3.org/2000/svg" viewBox="0 0 399.96 123.02"><defs><style>.d{fill:#9d8967;}.e{fill:#d0cdc2;}</style></defs><g id="a"/><g id="b"><g id="c"><g><g><path class="d" d="M82.93,0l-31.98,41.31c-3.33-1.19-5.71-4.39-5.71-8.13V0h37.69Z"/><path class="d" d="M43.39,51.08l-6.32,8.17c-7.86-4.43-13.18-12.86-13.18-22.51V0h9.24V33.18c0,7.63,4.12,14.3,10.26,17.9Z"/><path class="d" d="M29.6,68.89L0,107.13V0H11.78V36.74c0,13.54,7.12,25.44,17.82,32.15Z"/></g><path class="e" d="M165.25,77.21c-.05,.29-1.18,7.2-4.83,13.3-1.23,2.05-5.64,8.82-10.94,10.05-.54,.13-1.09,.19-1.61,.19-1.25,0-2.43-.35-3.49-1.04-1.38-.9-2.28-2.26-2.6-3.92-.99-5.17,3.6-12.55,8.22-19.1,.7-1,2.09-1.23,3.08-.53,1,.71,1.23,2.09,.53,3.08-5.48,7.76-7.99,13.04-7.48,15.71,.09,.49,.29,.81,.66,1.05,.29,.18,.59,.29,.92,.31,2.53,.36,6.23-2.99,8.57-7.4,3.77-7.09,4.59-12.35,4.59-12.4,.2-1.2,1.33-2.02,2.53-1.83,1.21,.19,2.03,1.32,1.84,2.53Z"/><path class="e" d="M259.37,106.88c-.46,0-.92-.14-1.32-.44-.98-.73-1.18-2.11-.46-3.09,6.47-8.7,13.8-18.56,12.94-22.78-.1-.47-.33-1.09-1.28-1.64-1.07-.62-4.21,.18-8.56,3.45-.37,.28-.74,.56-1.09,.85,.2,4.86-2.22,11.04-5.22,14.27-2.36,2.54-4.42,2.6-5.74,2.2-1.67-.5-2.78-1.75-3.04-3.41-.62-4.01,4.17-10.19,9.21-14.76-.52-1.15-1.43-1.23-1.9-1.27-.09,0-.17-.01-.26-.01-4.68,0-10.77,11.01-13.67,19.01-.4,1.11-1.61,1.71-2.73,1.36-1.13-.35-1.78-1.52-1.49-2.66l5.25-20.49c.3-1.18,1.51-1.9,2.69-1.59,1.18,.3,1.9,1.51,1.59,2.69l-.73,2.87c3.24-3.99,6.5-5.86,9.75-5.57,2.15,.19,3.87,1.18,4.96,2.82,.4-.3,.79-.58,1.18-.84,5.04-3.43,9.2-4.37,12.03-2.72,1.82,1.06,2.99,2.64,3.38,4.58,1.2,5.86-4.43,13.81-13.72,26.31-.43,.58-1.1,.89-1.78,.89Zm-4.84-18.83c-2.9,3.26-4.58,6.22-4.57,7.37,1.08-.29,3.41-3.54,4.57-7.37Z"/><path class="e" d="M238.93,67.93c-.2-.07-.39-.14-.59-.22-.42-.09-.84-.07-1.28,.06-.55,.1-1.19,.52-1.6,.92-.42,.42-.77,.96-.94,1.52-.43,1.41,.07,3.02,1.57,3.32,.14,.03,.29,.04,.44,.03,.56,.06,1.21,0,1.71-.36,.55-.39,1.05-.82,1.38-1.42,.42-.78,.55-1.54,.42-2.36-.1-.59-.59-1.24-1.11-1.49Z"/><path class="e" d="M82.68,105.92c-1.18,0-2.33-.12-3.43-.36-4.53-.98-7.82-3.86-9.28-8.12-1.87-5.46-.48-11,4.01-16.01,4.31-4.81,10.16-7.72,12.47-8.74,.24-.1,.48-.2,.73-.3-.56-.72-.99-1.56-1.27-2.55-.8-2.87-.07-5.75,2.12-8.33,.47-.55,1-1.08,1.57-1.58-3.11-2.44-4.95-4.87-5.08-5.05-.73-.98-.53-2.36,.45-3.09s2.36-.53,3.09,.45c.06,.08,2.1,2.74,5.41,5.06,3.6-1.94,7.68-2.99,10.31-2.71,2.05,.22,3.66,1.37,4.32,3.07,.65,1.68,.26,3.61-1.01,5.05-.86,.97-3.42,3.09-8.55,1.79-1.84-.47-3.54-1.18-5.08-2.01-.78,.57-1.49,1.2-2.07,1.88-1.23,1.45-1.63,2.85-1.23,4.28,.35,1.27,1.46,2.04,2.9,2.48,5.11-.57,10.36-.22,10.68-.2,1.09,.08,1.97,.94,2.05,2.03,.09,1.09-.64,2.08-1.71,2.33-3.11,.72-7.53,1.16-11.27,.32-1.77,.23-3.4,.58-4.6,1.11-2.05,.91-7.24,3.48-10.97,7.65-3.4,3.8-4.45,7.71-3.11,11.63,.95,2.77,3.03,4.58,6.03,5.23,4.82,1.04,12.88-.94,21.05-9.63,5.39-5.73,9.72-11.69,12.04-14.89,.56-.77,1-1.38,1.32-1.79,.43-.56,1.58-2.06,3.27-1.23,.82,.4,1.52,1.43,1.14,2.74-.58,1.96,.61,3.72,2.62,6.39,2.15,2.85,4.83,6.39,3.11,10.89-3.08,8.09-14,6.93-14.47,6.87-1.21-.14-2.08-1.24-1.95-2.45,.14-1.21,1.23-2.09,2.45-1.95,.07,0,7.97,.82,9.83-4.05,.8-2.11-.43-3.9-2.5-6.65-.94-1.24-1.98-2.62-2.71-4.16-2.53,3.44-6.34,8.43-10.92,13.3-6.75,7.18-14.8,11.28-21.78,11.28Zm15.85-46.03c.36,.12,.73,.23,1.11,.32,2.27,.57,3.67,.18,4.16-.44,.32-.41-.04-.75-.48-.8-1.02-.11-2.83,.21-4.79,.91Z"/><path class="e" d="M187.34,75.22c-.77-.74-1.97-.83-2.83-.2-.78,.56-1.48,1.67-2.86,4.1-.98-1.75-2.65-2.89-4.66-3.16-3.15-.42-6.67,1.29-9.44,4.59-3.75,4.47-7.13,11-6.24,15.54,.36,1.84,1.39,3.24,2.96,4.06,1.07,.56,2.13,.81,3.18,.81,3.46,0,6.77-2.77,9.7-6.43,.08,1.83,.52,3.57,1.45,5.1,.64,1.04,2,1.37,3.04,.73,1.04-.64,1.37-2,.73-3.04-2.98-4.87,2.95-15.83,5.27-19.28,.6-.89,.47-2.08-.3-2.83Zm-10.36,11.45c-.28,.61-.61,1.19-.99,1.75-3.19,4.76-6.96,9.06-9.67,7.64-.27-.14-.54-.36-.67-1-.5-2.51,1.82-7.71,5.28-11.83,1.92-2.28,3.88-3.07,5.12-3.07,.12,0,.24,0,.34,.02,.69,.09,1.17,.46,1.48,1.12,.6,1.31-.03,3.49-.89,5.37Z"/><path class="e" d="M146,75c-1.8-1.14-3.21,.62-3.81,1.37-.29,.37-.58,.8-.85,1.29-.9-.92-2.3-1.73-4.48-1.96-6.72-.7-12.96,8.23-14.87,14.95-1.89,6.65,.9,8.82,2.19,9.45,1.91,.93,4.03,1.01,6.13,.24,.57-.21,1.14-.48,1.7-.81-.31,.62-.65,1.28-1,1.99-2.62,5.22-6.58,13.09-9.87,17.97-.61,.9-.55,2.13,.23,2.88,.45,.43,1,.64,1.55,.64,.71,0,1.41-.34,1.83-.97,3.47-5.11,7.36-12.87,10.21-18.54,.78-1.56,1.51-2.89,2-3.95,3.69-7.85,3.24-7.22,8.2-17.95,.12-.25,.31-.64,.52-1.07,1.3-2.63,2.16-4.37,.32-5.54Zm-8.03,10.47c-.45,1.22-1.08,2.37-1.82,3.44-3.12,4.56-6.72,8.53-9.35,7.16-.27-.14-.54-.36-.67-1-.5-2.51,1.82-7.71,5.28-11.83,1.92-2.28,3.88-3.07,5.12-3.07,.12,0,.24,0,.34,.02,.69,.09,1.17,.46,1.48,1.12,.48,1.04,.18,2.62-.39,4.16Z"/><path class="e" d="M398.53,95.79c-.71-.27-17.64-6.62-39.44-4.75-9.59,.82-17.69,3.96-24.19,6.49-5.44,2.11-10.12,3.94-14.01,3.81-2.99-.09-4.93-.92-5.75-2.44-1.2-2.24-.08-5.99,1.05-7.82,4.48-7.22,5.93-11.26,2.07-14.67-3.64-3.22-15.09-1.7-16.74-.71-.88,.54-1.32,1.55-1.08,2.52,.19,.79,.69,1.32,1.47,1.6-.16,1.11-.84,3.51-2.92,7.65l-.54,1.09c-2.29,4.56-3.71,6.54-4.46,7.39-.82-2.04-.51-6.83,2.28-13.6,1.15-2.32,1.92-4.08,2.16-4.65,.46-1.1-.02-2.36-1.1-2.87-1.08-.5-2.36-.07-2.9,.99-.29,.56-.77,1.52-1.33,2.77-.37-.62-.85-1.19-1.46-1.7-2.91-2.41-8.05-.72-11.13,2.23-3.4,3.25-8.09,10.79-7.67,15.9,.2,2.47,1.46,3.82,2.49,4.52,1.77,1.21,3.8,1.52,5.87,.91,2.78-.82,5.5-3.34,7.94-6.44,.11,2.49,.84,4.69,2.58,6.15,.75,.63,1.69,.86,2.66,.67,1.66-.34,3.78-1.82,8.05-10.31l.54-1.09c2.84-5.64,3.48-8.66,3.44-10.34,3.19-.32,7.86-.35,8.95,.61,.86,.76,1.75,1.54-2.9,9.03-1.44,2.32-3.54,7.86-1.19,12.25,1.11,2.08,3.67,4.59,9.51,4.77,.17,0,.34,0,.51,0,4.62,0,9.56-1.91,15.24-4.12,6.57-2.55,14.01-5.43,22.97-6.2,20.74-1.78,37.32,4.42,37.48,4.48,1.14,.44,2.42-.14,2.85-1.28,.44-1.14-.14-2.42-1.28-2.85Zm-109.29-10.32c-.45,1.22-1.08,2.37-1.82,3.44-3.12,4.56-6.72,8.53-9.34,7.15-.27-.14-.54-.36-.67-1-.5-2.51,1.82-7.71,5.28-11.83,1.92-2.28,3.88-3.07,5.12-3.07,.12,0,.24,0,.34,.02,.69,.09,1.17,.46,1.48,1.12,.48,1.04,.18,2.62-.39,4.16Z"/><path class="e" d="M235.82,74.64c-1.13-.16-2.2,.56-2.46,1.67,0,0-.91,4.1-1.16,5.48s-2.75,8.32-5.24,10.81c-1.75,1.75-5.46,4.48-7.03,3.41-1.57-1.07-.49-4.42,.27-6.25,1.64-3.97,4.84-8.68,7.19-11.56,.77-.94,.63-2.33-.31-3.1-.94-.78-2.33-.64-3.11,.3-1.29,1.57-4.3,2.7-6.73,3.17-.59-1.55-1.81-2.45-3.1-2.7-1.88-.36-3.65,.64-4.12,2.34-.51,1.81,.21,3.47,1.86,4.33,.25,.13,.54,.25,.84,.34-1.12,3.54-4.17,10.8-7.37,12.97-.56,.37-.95,.46-1.2,.46-.25-.62-.75-2.84,.25-9.82,6-10.12,10.64-22.82,10.48-27.71-.04-1.18-.69-3.04-2.2-3.7-1.24-.55-3.04-.06-3.59,.25-3.41,1.92-5.44,8.85-7.62,21.47-.83-.56-1.81-.91-2.88-1.02-4.16-.42-8.7,2.84-12.15,8.72-2.02,3.43-4.2,8.29-3.21,11.99,.39,1.47,1.26,2.61,2.5,3.32,1.62,.92,4.3,1.57,7.83-.56,1.93-1.16,3.91-3.08,5.84-5.47,.09,4.06,1.15,6.13,3.26,6.73,1.18,.33,3.03,.43,5.17-1.01,4.66-3.15,8.37-12.39,9.45-16.46,.51-.07,1.03-.16,1.55-.28-2.36,3.96-4.52,8.75-4.03,12.41,.25,1.86,1.14,3.38,2.57,4.41,1.4,1,3.05,1.37,4.77,1.07,2.24-.39,4.4-1.88,6.31-3.74l-1.03,4.3c-.28,1.19,.46,2.38,1.64,2.67,.17,.04,.34,.06,.51,.06,1,0,1.91-.68,2.15-1.69,0,0,6-25.08,6.01-25.32,.06-1.14-.76-2.14-1.9-2.31Zm-27.8-7.8c.96-3.72,1.8-5.64,2.39-6.62-.3,2.32-1.54,6.35-3.37,10.91,.32-1.52,.64-2.96,.99-4.28Zm-8.68,18.63c-.46,1.22-1.09,2.37-1.82,3.44-3.12,4.56-6.72,8.53-9.35,7.15-.27-.15-.54-.36-.66-1-.5-2.52,1.82-7.71,5.28-11.83,1.91-2.29,3.87-3.07,5.12-3.07,.12,0,.23,0,.34,.02,.69,.09,1.18,.46,1.48,1.12,.48,1.04,.18,2.62-.39,4.16Z"/></g></g></g></svg>