<?xml version="1.0" encoding="UTF-8"?><svg xmlns="http://www.w3.org/2000/svg" viewBox="0 0 449.99 97.49"><defs><style>.d{fill:#19322f;}</style></defs><g id="a"/><g id="b"><g id="c"><g><path class="d" d="M130.71,35.17c-.07,.4-1.6,9.79-6.57,18.1-1.67,2.79-7.67,12-14.88,13.67-.74,.17-1.48,.26-2.19,.26-1.7,0-3.31-.47-4.75-1.41-1.88-1.22-3.1-3.07-3.54-5.34-1.35-7.03,4.89-17.07,11.18-25.98,.95-1.36,2.84-1.68,4.2-.72,1.36,.96,1.68,2.84,.72,4.2-7.45,10.56-10.88,17.74-10.18,21.37,.13,.67,.4,1.1,.9,1.43,.4,.25,.8,.4,1.26,.42,3.44,.49,8.47-4.07,11.66-10.07,5.12-9.65,6.24-16.8,6.25-16.87,.27-1.63,1.8-2.75,3.45-2.49,1.64,.26,2.76,1.8,2.5,3.44Z"/><path class="d" d="M258.74,75.53c-.62,0-1.25-.19-1.79-.59-1.33-.99-1.61-2.88-.62-4.21,8.8-11.84,18.77-25.25,17.6-30.99-.13-.64-.45-1.48-1.74-2.23-1.46-.85-5.73,.25-11.65,4.69-.51,.38-1,.76-1.49,1.16,.27,6.61-3.02,15.02-7.1,19.41-3.2,3.45-6.02,3.53-7.81,2.99-2.28-.69-3.79-2.38-4.13-4.64-.84-5.46,5.67-13.86,12.53-20.08-.71-1.56-1.94-1.67-2.58-1.73-.12-.01-.24-.02-.35-.02-6.36,0-14.66,14.98-18.59,25.86-.55,1.51-2.18,2.33-3.72,1.85-1.53-.47-2.43-2.07-2.03-3.62l7.14-27.87c.41-1.61,2.05-2.58,3.66-2.17,1.61,.41,2.58,2.05,2.17,3.66l-1,3.9c4.4-5.43,8.84-7.97,13.26-7.58,2.93,.26,5.26,1.61,6.75,3.84,.54-.4,1.08-.79,1.6-1.14,6.86-4.67,12.51-5.94,16.37-3.7,2.47,1.44,4.07,3.6,4.6,6.23,1.63,7.97-6.03,18.79-18.67,35.79-.59,.79-1.5,1.21-2.42,1.21Zm-6.59-25.62c-3.95,4.44-6.24,8.46-6.22,10.03,1.46-.39,4.64-4.82,6.22-10.03Z"/><path class="d" d="M230.95,22.55c-.27-.1-.54-.2-.8-.29-.57-.12-1.15-.09-1.74,.08-.75,.14-1.62,.7-2.18,1.25-.57,.57-1.05,1.31-1.28,2.07-.59,1.92,.1,4.11,2.14,4.52,.19,.04,.39,.05,.6,.05,.77,.09,1.65-.01,2.32-.49,.75-.53,1.43-1.11,1.87-1.94,.57-1.06,.75-2.09,.57-3.21-.13-.8-.8-1.69-1.51-2.03Z"/><path class="d" d="M18.39,74.23c-1.6,0-3.16-.16-4.67-.48-6.16-1.33-10.64-5.25-12.62-11.05-2.54-7.43-.66-14.96,5.45-21.78,5.86-6.54,13.82-10.5,16.97-11.9,.32-.14,.65-.28,1-.4-.76-.98-1.35-2.13-1.72-3.47-1.09-3.91-.09-7.83,2.88-11.33,.64-.75,1.36-1.47,2.14-2.15-4.23-3.32-6.73-6.63-6.9-6.87-.99-1.33-.72-3.22,.61-4.21s3.22-.72,4.21,.61c.08,.1,2.86,3.73,7.36,6.88,4.89-2.63,10.44-4.07,14.03-3.68,2.78,.3,4.98,1.86,5.88,4.18,.88,2.28,.36,4.91-1.37,6.87-1.17,1.32-4.65,4.21-11.64,2.44-2.51-.63-4.82-1.61-6.91-2.74-1.06,.77-2.02,1.63-2.81,2.56-1.67,1.97-2.22,3.87-1.67,5.82,.48,1.73,1.98,2.78,3.94,3.38,6.96-.77,14.1-.3,14.53-.27,1.49,.1,2.67,1.28,2.79,2.76,.12,1.49-.87,2.83-2.32,3.17-4.23,.98-10.24,1.58-15.33,.43-2.41,.31-4.63,.79-6.25,1.51-2.79,1.24-9.84,4.74-14.93,10.41-4.63,5.17-6.06,10.49-4.24,15.81,1.29,3.77,4.12,6.23,8.2,7.11,6.56,1.42,17.52-1.28,28.64-13.1,7.34-7.8,13.22-15.9,16.38-20.25,.76-1.04,1.36-1.87,1.79-2.43,.59-.77,2.15-2.8,4.45-1.67,1.11,.55,2.07,1.95,1.55,3.73-.78,2.67,.82,5.06,3.57,8.69,2.93,3.87,6.57,8.69,4.23,14.82-4.19,11-19.05,9.42-19.68,9.35-1.65-.19-2.84-1.68-2.65-3.33,.19-1.65,1.67-2.84,3.33-2.65,.1,.01,10.85,1.11,13.37-5.52,1.09-2.87-.58-5.31-3.41-9.04-1.28-1.69-2.69-3.56-3.69-5.66-3.45,4.69-8.62,11.46-14.85,18.09-9.19,9.77-20.13,15.34-29.62,15.34ZM39.96,11.62c.49,.16,1,.31,1.51,.44,3.09,.78,4.99,.24,5.66-.59,.44-.56-.06-1.02-.65-1.08-1.39-.15-3.85,.29-6.52,1.23Z"/><path class="d" d="M160.76,32.47c-1.05-1.01-2.68-1.12-3.86-.27-1.06,.77-2.02,2.28-3.9,5.57-1.34-2.38-3.61-3.93-6.33-4.3-4.28-.57-9.08,1.76-12.84,6.24-5.1,6.08-9.7,14.97-8.48,21.14,.5,2.5,1.89,4.41,4.03,5.52,1.46,.76,2.9,1.1,4.32,1.1,4.71,0,9.2-3.77,13.2-8.75,.11,2.49,.7,4.86,1.97,6.94,.87,1.42,2.72,1.86,4.14,1,1.42-.87,1.86-2.72,1-4.14-4.05-6.63,4.02-21.53,7.17-26.23,.81-1.21,.64-2.83-.41-3.84Zm-14.09,15.58c-.38,.83-.83,1.62-1.34,2.38-4.34,6.47-9.46,12.32-13.16,10.39-.37-.19-.74-.49-.91-1.36-.68-3.42,2.48-10.49,7.19-16.09,2.61-3.11,5.27-4.18,6.96-4.18,.17,0,.32,.01,.47,.03,.94,.13,1.59,.62,2.01,1.52,.82,1.78-.05,4.75-1.22,7.31Z"/><path class="d" d="M104.53,32.17c-2.44-1.55-4.36,.84-5.18,1.87-.4,.5-.78,1.09-1.16,1.76-1.22-1.25-3.13-2.35-6.09-2.66-9.14-.95-17.63,11.19-20.23,20.33-2.58,9.05,1.22,12,2.98,12.85,2.6,1.26,5.49,1.37,8.34,.32,.78-.29,1.55-.65,2.31-1.1-.42,.84-.88,1.75-1.36,2.71-3.57,7.1-8.95,17.81-13.43,24.45-.82,1.22-.75,2.9,.31,3.92,.61,.59,1.37,.87,2.11,.87,.96,0,1.91-.46,2.49-1.32,4.71-6.96,10.02-17.51,13.89-25.22,1.06-2.12,2.05-3.93,2.73-5.37,5.02-10.68,4.41-9.82,11.16-24.42,.16-.35,.42-.87,.7-1.46,1.77-3.58,2.93-5.95,.43-7.54Zm-10.92,14.24c-.61,1.66-1.47,3.22-2.47,4.68-4.24,6.2-9.14,11.6-12.71,9.73-.37-.19-.74-.49-.91-1.36-.68-3.42,2.48-10.49,7.19-16.09,2.61-3.11,5.27-4.18,6.96-4.18,.17,0,.32,.01,.47,.03,.94,.13,1.59,.62,2.01,1.52,.65,1.41,.24,3.56-.54,5.66Z"/><path class="d" d="M448.06,60.44c-.97-.37-24-9.01-53.65-6.47-13.05,1.12-24.06,5.39-32.91,8.82-7.4,2.87-13.76,5.37-19.06,5.19-4.07-.13-6.7-1.25-7.82-3.32-1.63-3.05-.11-8.15,1.43-10.64,6.1-9.82,8.07-15.31,2.81-19.96-4.95-4.38-20.53-2.32-22.77-.97-1.2,.73-1.79,2.1-1.47,3.42,.26,1.07,.93,1.8,2.01,2.18-.22,1.5-1.15,4.77-3.98,10.41l-.74,1.48c-3.12,6.2-5.05,8.89-6.07,10.05-1.12-2.78-.69-9.29,3.1-18.5,1.57-3.15,2.61-5.56,2.93-6.32,.63-1.49-.03-3.21-1.5-3.9-1.46-.69-3.21-.09-3.95,1.35-.39,.76-1.05,2.07-1.81,3.76-.5-.84-1.16-1.62-1.99-2.31-3.96-3.27-10.95-.97-15.15,3.04-4.63,4.42-11,14.67-10.43,21.63,.28,3.36,1.99,5.2,3.38,6.15,2.4,1.64,5.17,2.07,7.99,1.24,3.78-1.11,7.49-4.55,10.8-8.75,.15,3.39,1.14,6.38,3.51,8.37,1.02,.86,2.3,1.18,3.62,.91,2.25-.46,5.14-2.48,10.94-14.03l.74-1.48c3.86-7.67,4.73-11.78,4.68-14.07,4.33-.43,10.69-.47,12.17,.84,1.17,1.03,2.38,2.1-3.94,12.28-1.96,3.16-4.82,10.7-1.62,16.66,1.51,2.83,4.99,6.25,12.93,6.49,.23,0,.46,.01,.69,.01,6.29,0,13-2.61,20.73-5.6,8.93-3.46,19.06-7.39,31.25-8.44,28.22-2.42,50.77,6.01,50.99,6.09,1.55,.59,3.29-.19,3.88-1.74s-.18-3.29-1.74-3.88Zm-148.67-14.04c-.61,1.66-1.47,3.22-2.47,4.68-4.24,6.2-9.14,11.6-12.71,9.73-.37-.19-.74-.49-.91-1.36-.68-3.42,2.48-10.49,7.19-16.09,2.61-3.11,5.27-4.18,6.96-4.18,.17,0,.32,.01,.47,.03,.94,.13,1.59,.62,2.01,1.52,.65,1.41,.24,3.56-.54,5.66Z"/><path class="d" d="M226.71,31.68c-1.54-.22-2.99,.77-3.35,2.28,0,0-1.24,5.58-1.57,7.45s-3.74,11.32-7.12,14.7c-2.38,2.38-7.43,6.1-9.56,4.64s-.66-6.01,.37-8.5c2.23-5.39,6.58-11.8,9.78-15.72,1.05-1.28,.86-3.17-.42-4.22-1.28-1.06-3.17-.87-4.23,.4-1.75,2.13-5.85,3.68-9.16,4.32-.81-2.11-2.47-3.34-4.21-3.67-2.56-.49-4.96,.88-5.61,3.19-.69,2.46,.28,4.72,2.53,5.89,.34,.18,.73,.34,1.14,.46-1.53,4.81-5.67,14.69-10.03,17.64-.76,.51-1.29,.63-1.63,.63-.34-.84-1.01-3.87,.34-13.36,8.17-13.76,14.47-31.04,14.25-37.7-.05-1.6-.94-4.13-3-5.04-1.69-.74-4.13-.08-4.88,.35-4.63,2.61-7.4,12.04-10.37,29.21-1.13-.76-2.46-1.24-3.92-1.38-5.67-.57-11.84,3.86-16.53,11.86-2.74,4.66-5.72,11.28-4.37,16.32,.53,1.99,1.71,3.55,3.4,4.51,2.21,1.26,5.85,2.14,10.65-.76,2.62-1.58,5.31-4.19,7.94-7.44,.12,5.53,1.56,8.34,4.44,9.16,1.61,.46,4.13,.58,7.03-1.38,6.34-4.28,11.39-16.85,12.85-22.39,.7-.09,1.4-.22,2.11-.39-3.21,5.39-6.15,11.9-5.48,16.88,.33,2.53,1.55,4.6,3.5,6,1.9,1.36,4.14,1.87,6.49,1.46,3.05-.53,5.98-2.56,8.58-5.09l-1.4,5.85c-.38,1.62,.62,3.24,2.24,3.63,.23,.05,.46,.08,.7,.08,1.36,0,2.6-.93,2.92-2.3,0,0,8.16-34.11,8.18-34.45,.08-1.56-1.04-2.91-2.58-3.14Zm-37.82-10.62c1.31-5.05,2.45-7.67,3.25-9.01-.41,3.16-2.1,8.64-4.59,14.84,.43-2.07,.88-4.03,1.34-5.83Zm-11.81,25.34c-.62,1.66-1.48,3.22-2.48,4.69-4.24,6.2-9.14,11.6-12.71,9.73-.37-.2-.74-.49-.9-1.36-.68-3.42,2.48-10.49,7.19-16.09,2.61-3.11,5.27-4.18,6.96-4.18,.16,0,.32,0,.46,.03,.94,.13,1.6,.63,2.01,1.52,.65,1.41,.24,3.57-.53,5.67Z"/></g></g></g></svg>